<svg xmlns="http://www.w3.org/2000/svg" width="239.025" height="240" viewBox="0 0 239.025 240" fill="none">
  <path d="M 157.563 133.43 L 132.913 133.43 L 132.913 173.31 C 132.965 190.664 126.232 207.351 114.152 219.81 C 102.072 232.27 85.601 239.515 68.253 240 C 64.737 239.981 61.368 238.585 58.868 236.113 C 56.368 233.64 54.936 230.286 54.879 226.77 C 54.821 223.254 56.143 219.856 58.56 217.302 C 60.978 214.749 64.3 213.244 67.813 213.11 L 68.663 213.11 C 78.816 212.52 88.357 208.068 95.332 200.668 C 102.306 193.268 106.185 183.479 106.173 173.31 L 106.173 133.43 L 96.243 133.43 C 92.741 133.334 89.414 131.876 86.971 129.365 C 84.527 126.854 83.16 123.489 83.16 119.985 C 83.16 116.481 84.527 113.116 86.971 110.605 C 89.414 108.094 92.741 106.636 96.243 106.54 L 106.173 106.54 L 106.173 66.71 C 106.124 49.309 112.893 32.58 125.03 20.11 C 137.168 7.64 153.707 0.421 171.103 0 C 174.632 0.134 177.965 1.65 180.386 4.221 C 182.806 6.791 184.118 10.211 184.039 13.74 C 183.961 17.27 182.497 20.627 179.965 23.087 C 177.432 25.548 174.034 26.913 170.503 26.89 C 160.33 27.451 150.76 31.894 143.766 39.303 C 136.772 46.711 132.888 56.521 132.913 66.71 L 132.913 106.58 L 157.563 106.58 C 161.131 106.58 164.552 107.997 167.074 110.519 C 169.596 113.042 171.013 116.463 171.013 120.03 C 171.013 123.597 169.596 127.018 167.074 129.541 C 164.552 132.063 161.131 133.48 157.563 133.48 L 157.563 133.43 Z M 50.993 226.58 C 50.992 223.809 51.641 221.076 52.888 218.601 C 54.135 216.126 55.945 213.978 58.173 212.33 C 48.578 210.234 40.092 204.673 34.34 196.712 C 28.588 188.75 25.973 178.947 26.997 169.179 C 28.021 159.41 32.611 150.362 39.889 143.767 C 47.167 137.171 56.622 133.491 66.443 133.43 L 85.443 133.43 C 83.51 131.764 81.959 129.7 80.896 127.38 C 79.832 125.06 79.282 122.537 79.282 119.985 C 79.282 117.433 79.832 114.91 80.896 112.59 C 81.959 110.27 83.51 108.206 85.443 106.54 L 66.443 106.54 C 49.67 106.62 33.542 113.01 21.266 124.44 C 8.99 135.871 1.467 151.503 0.193 168.228 C -1.081 184.953 3.987 201.544 14.389 214.702 C 24.792 227.86 39.766 236.62 56.333 239.24 C 54.646 237.591 53.305 235.622 52.388 233.448 C 51.471 231.274 50.997 228.939 50.993 226.58 Z M 182.753 0.75 C 184.576 2.547 185.989 4.718 186.895 7.112 C 187.801 9.506 188.179 12.068 188.002 14.622 C 187.826 17.176 187.099 19.662 185.872 21.909 C 184.645 24.156 182.947 26.111 180.893 27.64 C 190.551 29.678 199.11 35.224 204.918 43.205 C 210.725 51.186 213.368 61.036 212.336 70.852 C 211.303 80.668 206.67 89.754 199.329 96.352 C 191.989 102.951 182.464 106.595 172.593 106.58 L 168.333 106.58 C 170.264 108.249 171.813 110.314 172.874 112.635 C 173.935 114.956 174.485 117.478 174.485 120.03 C 174.485 122.582 173.935 125.104 172.874 127.425 C 171.813 129.746 170.264 131.811 168.333 133.48 L 172.593 133.48 C 183.574 133.428 194.373 130.667 204.031 125.443 C 213.69 120.218 221.911 112.692 227.965 103.531 C 234.019 94.369 237.719 83.856 238.737 72.922 C 239.756 61.988 238.061 50.972 233.803 40.85 C 229.448 30.348 222.465 21.144 213.525 14.121 C 204.584 7.098 193.988 2.494 182.753 0.75 Z" fill="currentColor" fill-rule="nonzero"/>
</svg>
