<svg xmlns="http://www.w3.org/2000/svg" width="1065.034" height="200.002" viewBox="0 0 1065.034 200.002" fill="#1A212E">
  <path d="M 52.884 153.062 C 36.284 153.062 23.324 148.335 14.004 138.882 C 4.684 129.428 0.017 116.128 0.004 98.982 C -0.091 89.797 1.716 80.693 5.314 72.242 C 8.742 64.215 14.407 57.345 21.634 52.452 C 28.967 47.412 38.014 44.895 48.774 44.902 C 58.847 44.902 67.554 47.235 74.894 51.902 C 82.126 56.462 87.927 62.967 91.634 70.672 C 95.479 78.66 97.433 87.426 97.344 96.292 C 97.383 97.526 97.165 98.755 96.704 99.9 C 96.244 101.046 95.55 102.083 94.667 102.946 C 93.784 103.809 92.731 104.479 91.576 104.914 C 90.42 105.349 89.186 105.539 87.954 105.472 L 18.804 105.472 C 19.89 114.992 23.427 122.408 29.414 127.722 C 35.4 133.035 43.767 135.702 54.514 135.722 C 59.562 135.798 64.6 135.25 69.514 134.092 C 73.853 132.982 78.06 131.41 82.064 129.402 C 83.204 128.841 84.462 128.559 85.734 128.582 C 87.857 128.56 89.906 129.367 91.444 130.832 C 92.243 131.548 92.877 132.43 93.3 133.416 C 93.723 134.402 93.926 135.469 93.894 136.542 C 93.894 139.535 92.127 142.052 88.594 144.092 C 83.63 146.935 78.355 149.197 72.874 150.832 C 67.707 152.318 61.044 153.062 52.884 153.062 Z M 79.004 90.412 C 78.59 83.745 76.854 78.165 73.794 73.672 C 70.992 69.405 67.078 65.985 62.474 63.782 C 58.217 61.696 53.539 60.611 48.799 60.611 C 44.058 60.611 39.381 61.696 35.124 63.782 C 30.536 65.969 26.65 69.394 23.904 73.672 C 20.91 78.165 19.21 83.745 18.804 90.412 L 79.004 90.412 Z M 130.624 25.712 C 127.866 25.704 125.223 24.606 123.271 22.658 C 121.319 20.71 120.217 18.069 120.204 15.312 L 120.204 14.492 C 120.214 11.736 121.313 9.095 123.261 7.146 C 125.208 5.196 127.848 4.095 130.604 4.082 L 131.834 4.082 C 134.59 4.095 137.229 5.196 139.176 7.146 C 141.124 9.095 142.223 11.736 142.234 14.492 L 142.234 15.312 C 142.22 18.066 141.121 20.703 139.173 22.651 C 137.225 24.599 134.588 25.698 131.834 25.712 L 130.624 25.712 Z M 131.034 152.002 C 129.823 152.019 128.622 151.794 127.5 151.339 C 126.378 150.883 125.359 150.208 124.503 149.352 C 123.647 148.496 122.972 147.477 122.517 146.355 C 122.062 145.234 121.836 144.032 121.854 142.822 L 121.854 55.312 C 121.831 54.084 122.054 52.865 122.509 51.724 C 122.964 50.584 123.642 49.546 124.504 48.672 C 125.34 47.783 126.353 47.079 127.477 46.605 C 128.602 46.132 129.813 45.899 131.034 45.922 C 132.279 45.877 133.52 46.089 134.679 46.545 C 135.839 47.001 136.892 47.691 137.773 48.572 C 138.654 49.453 139.344 50.506 139.8 51.666 C 140.256 52.825 140.468 54.066 140.424 55.312 L 140.424 142.862 C 140.447 144.083 140.214 145.295 139.738 146.42 C 139.263 147.545 138.556 148.558 137.664 149.392 C 136.788 150.246 135.75 150.917 134.612 151.365 C 133.473 151.813 132.257 152.03 131.034 152.002 Z M 221.204 200.002 C 213.147 199.98 205.125 198.952 197.324 196.942 C 190.416 195.332 183.758 192.792 177.534 189.392 C 175.087 187.892 173.86 185.508 173.854 182.242 C 173.855 180.074 174.697 177.991 176.204 176.432 C 176.932 175.611 177.829 174.958 178.834 174.518 C 179.839 174.078 180.927 173.861 182.024 173.882 C 183.287 173.919 184.532 174.194 185.694 174.692 C 196.15 179.891 207.686 182.55 219.364 182.452 C 240.17 182.452 250.577 171.362 250.584 149.182 L 250.584 135.512 C 240.944 145.838 229.324 151.002 215.724 151.002 C 207.556 150.971 199.525 148.909 192.354 145.002 C 184.615 140.803 178.162 134.582 173.684 127.002 C 168.784 119.042 166.334 109.348 166.334 97.922 C 166.334 86.495 168.784 76.802 173.684 68.842 C 178.162 61.262 184.615 55.04 192.354 50.842 C 199.524 46.93 207.556 44.868 215.724 44.842 C 229.324 44.842 240.954 50.012 250.614 60.352 L 250.614 55.252 C 250.594 54.025 250.818 52.806 251.273 51.666 C 251.728 50.526 252.404 49.488 253.264 48.612 C 254.1 47.723 255.113 47.019 256.237 46.545 C 257.362 46.072 258.573 45.839 259.794 45.862 C 261.033 45.859 262.262 46.102 263.407 46.576 C 264.553 47.051 265.593 47.747 266.468 48.626 C 267.342 49.505 268.035 50.548 268.504 51.695 C 268.974 52.843 269.212 54.072 269.204 55.312 L 269.204 146.532 C 269.204 163.672 265.054 176.868 256.754 186.122 C 248.454 195.375 236.604 200.002 221.204 200.002 Z M 219.564 134.082 C 225.477 134.208 231.323 132.802 236.534 130.002 C 241.742 127.047 246.486 123.34 250.614 119.002 L 250.614 77.002 C 246.486 72.663 241.742 68.956 236.534 66.002 C 231.332 63.206 225.497 61.801 219.594 61.922 C 209.394 61.922 201.06 65.015 194.594 71.202 C 188.127 77.388 184.897 86.322 184.904 98.002 C 184.904 109.702 188.137 118.648 194.604 124.842 C 201.07 131.035 209.4 134.115 219.594 134.082 L 219.564 134.082 Z M 310.564 152.082 C 309.353 152.098 308.152 151.871 307.03 151.416 C 305.908 150.96 304.889 150.285 304.033 149.429 C 303.176 148.574 302.5 147.556 302.043 146.434 C 301.586 145.313 301.359 144.112 301.374 142.902 L 301.374 10.412 C 301.352 9.185 301.576 7.966 302.033 6.828 C 302.49 5.689 303.17 4.653 304.034 3.782 C 304.87 2.878 305.89 2.163 307.024 1.683 C 308.159 1.204 309.382 0.972 310.614 1.002 C 313.101 1.01 315.483 2.002 317.241 3.761 C 318.999 5.521 319.988 7.905 319.994 10.392 L 319.994 63.672 C 324.807 58.25 330.459 53.634 336.734 50.002 C 342.734 46.602 349.807 44.902 357.954 44.902 C 364.827 44.735 371.601 46.577 377.444 50.202 C 382.946 53.737 387.333 58.762 390.094 64.692 C 393.06 71.012 394.56 77.92 394.484 84.902 L 394.484 142.902 C 394.507 144.123 394.273 145.335 393.798 146.46 C 393.323 147.585 392.616 148.598 391.724 149.432 C 390.85 150.292 389.814 150.969 388.676 151.424 C 387.537 151.879 386.319 152.103 385.094 152.082 C 383.883 152.099 382.682 151.874 381.56 151.419 C 380.438 150.963 379.419 150.288 378.563 149.432 C 377.707 148.576 377.032 147.557 376.577 146.435 C 376.122 145.314 375.896 144.112 375.914 142.902 L 375.914 86.942 C 375.914 70.342 368.43 62.042 353.464 62.042 C 346.983 61.948 340.623 63.797 335.204 67.352 C 329.408 71.274 324.273 76.094 319.994 81.632 L 319.994 142.862 C 320.016 144.082 319.784 145.293 319.31 146.418 C 318.836 147.542 318.132 148.555 317.244 149.392 C 316.367 150.245 315.329 150.915 314.191 151.363 C 313.053 151.811 311.837 152.028 310.614 152.002 L 310.564 152.082 Z M 459.114 153.082 C 439.254 153.082 429.324 144.102 429.324 126.142 L 429.324 62.862 L 414.884 62.862 C 414.375 62.864 413.871 62.766 413.4 62.574 C 412.93 62.381 412.502 62.097 412.141 61.738 C 411.781 61.379 411.495 60.953 411.299 60.483 C 411.104 60.014 411.004 59.51 411.004 59.002 C 411.011 58.318 411.182 57.647 411.502 57.043 C 411.822 56.439 412.282 55.921 412.844 55.532 L 440.594 28.392 C 441.461 27.343 442.709 26.681 444.064 26.552 C 444.585 26.544 445.102 26.651 445.579 26.863 C 446.055 27.075 446.48 27.389 446.824 27.782 C 447.556 28.548 447.958 29.572 447.944 30.632 L 447.944 46.942 L 471.004 46.942 C 472.573 46.948 474.105 47.416 475.411 48.286 C 476.716 49.157 477.736 50.392 478.345 51.839 C 478.954 53.285 479.123 54.878 478.833 56.421 C 478.543 57.963 477.806 59.385 476.714 60.512 C 475.98 61.283 475.093 61.89 474.109 62.295 C 473.125 62.7 472.067 62.893 471.004 62.862 L 447.944 62.862 L 447.944 124.492 C 447.944 129.825 449.204 133.192 451.724 134.592 C 454.644 136.117 457.911 136.855 461.204 136.732 C 463.972 136.728 466.725 136.317 469.374 135.512 C 469.914 135.372 470.494 135.242 471.104 135.102 C 471.878 134.955 472.665 134.888 473.454 134.902 C 474.403 134.904 475.342 135.094 476.218 135.462 C 477.093 135.829 477.887 136.366 478.554 137.042 C 479.273 137.701 479.845 138.505 480.232 139.401 C 480.618 140.298 480.809 141.266 480.794 142.242 C 480.794 145.372 479.234 147.762 476.104 149.392 C 470.806 151.835 465.037 153.088 459.204 153.062 L 459.114 153.082 Z M 518.114 152.082 C 516.903 152.098 515.702 151.871 514.58 151.416 C 513.458 150.96 512.439 150.285 511.583 149.429 C 510.726 148.574 510.05 147.556 509.593 146.434 C 509.137 145.313 508.909 144.112 508.924 142.902 L 508.924 62.902 L 496.924 62.902 C 494.802 62.902 492.767 62.059 491.267 60.558 C 489.766 59.058 488.924 57.023 488.924 54.902 C 488.891 53.837 489.083 52.778 489.486 51.793 C 489.889 50.808 490.495 49.918 491.264 49.182 C 492.005 48.457 492.882 47.886 493.845 47.502 C 494.808 47.118 495.837 46.927 496.874 46.942 L 508.874 46.942 L 508.874 35.102 C 508.874 26.942 510.337 20.242 513.264 15.002 C 515.829 10.123 519.815 6.137 524.694 3.572 C 529.292 1.207 534.392 -0.017 539.564 0.002 C 545.722 -0.054 551.807 1.344 557.324 4.082 C 558.686 4.772 559.844 5.806 560.684 7.082 C 561.549 8.304 562.014 9.764 562.014 11.262 C 562.016 12.267 561.82 13.262 561.435 14.191 C 561.051 15.12 560.486 15.963 559.774 16.672 C 559.102 17.412 558.282 18.002 557.367 18.403 C 556.452 18.805 555.463 19.009 554.464 19.002 C 552.881 18.993 551.306 18.788 549.774 18.392 C 546.504 17.982 544.674 17.782 544.264 17.782 C 538.684 17.782 534.5 19.072 531.714 21.652 C 528.927 24.232 527.53 28.925 527.524 35.732 L 527.524 46.942 L 553.034 46.942 C 554.604 46.946 556.137 47.412 557.444 48.282 C 558.751 49.152 559.773 50.388 560.383 51.834 C 560.993 53.281 561.164 54.875 560.874 56.418 C 560.584 57.961 559.847 59.385 558.754 60.512 C 558.018 61.282 557.128 61.889 556.143 62.294 C 555.158 62.699 554.098 62.892 553.034 62.862 L 527.524 62.862 L 527.524 142.862 C 527.549 144.082 527.317 145.294 526.843 146.419 C 526.37 147.544 525.664 148.557 524.774 149.392 C 523.897 150.245 522.859 150.915 521.721 151.363 C 520.583 151.811 519.367 152.028 518.144 152.002 L 518.114 152.082 Z M 619.114 153.082 C 608.634 153.082 599.45 150.838 591.564 146.352 C 583.73 141.925 577.378 135.284 573.304 127.262 C 569.017 119.028 566.874 109.608 566.874 99.002 C 566.874 88.395 569.017 78.972 573.304 70.732 C 577.389 62.701 583.755 56.057 591.604 51.632 C 599.49 47.145 608.69 44.902 619.204 44.902 C 629.544 44.902 638.657 47.145 646.544 51.632 C 654.388 56.075 660.77 62.705 664.914 70.712 C 669.26 78.952 671.437 88.375 671.444 98.982 C 671.45 109.588 669.274 119.008 664.914 127.242 C 660.773 135.253 654.39 141.886 646.544 146.332 C 638.624 150.825 629.51 153.068 619.204 153.062 L 619.114 153.082 Z M 619.114 136.142 C 624.68 136.142 630.166 134.812 635.114 132.262 C 640.446 129.489 644.861 125.231 647.824 120.002 C 651.157 114.422 652.824 107.348 652.824 98.782 C 652.824 90.342 651.157 83.342 647.824 77.782 C 644.9 72.577 640.511 68.345 635.204 65.612 C 630.234 63.132 624.757 61.842 619.204 61.842 C 613.578 61.822 608.024 63.113 602.984 65.612 C 597.681 68.317 593.309 72.549 590.434 77.762 C 587.167 83.328 585.534 90.328 585.534 98.762 C 585.534 107.328 587.167 114.402 590.434 119.982 C 593.324 125.205 597.689 129.462 602.984 132.222 C 608.001 134.798 613.563 136.136 619.204 136.122 L 619.114 136.142 Z M 706.494 152.002 C 705.283 152.018 704.082 151.791 702.96 151.336 C 701.838 150.88 700.819 150.205 699.963 149.349 C 699.106 148.494 698.43 147.476 697.973 146.354 C 697.516 145.233 697.289 144.032 697.304 142.822 L 697.304 10.412 C 697.282 9.185 697.506 7.966 697.963 6.828 C 698.42 5.689 699.1 4.653 699.964 3.782 C 700.795 2.885 701.807 2.174 702.932 1.695 C 704.057 1.216 705.271 0.98 706.494 1.002 C 707.738 0.958 708.978 1.172 710.136 1.628 C 711.294 2.085 712.346 2.775 713.226 3.656 C 714.106 4.537 714.795 5.59 715.251 6.748 C 715.706 7.907 715.918 9.147 715.874 10.392 L 715.874 142.862 C 715.899 144.082 715.667 145.294 715.193 146.419 C 714.72 147.544 714.014 148.557 713.124 149.392 C 712.247 150.245 711.209 150.915 710.071 151.363 C 708.933 151.811 707.717 152.028 706.494 152.002 Z M 791.174 153.002 C 782.746 153.012 774.466 150.794 767.174 146.572 C 759.445 142.118 753.09 135.624 748.804 127.802 C 744.137 119.568 741.804 109.942 741.804 98.922 C 741.804 87.902 744.137 78.275 748.804 70.042 C 753.107 62.237 759.472 55.765 767.204 51.332 C 774.497 47.109 782.776 44.891 791.204 44.902 C 804.537 44.902 816.17 50.072 826.104 60.412 L 826.104 10.412 C 826.067 9.159 826.293 7.912 826.767 6.751 C 827.24 5.591 827.951 4.542 828.854 3.672 C 829.727 2.811 830.763 2.134 831.902 1.679 C 833.04 1.224 834.258 1 835.484 1.022 C 836.705 0.996 837.918 1.229 839.043 1.705 C 840.168 2.18 841.181 2.888 842.014 3.782 C 842.877 4.653 843.557 5.689 844.014 6.828 C 844.471 7.966 844.695 9.185 844.674 10.412 L 844.674 142.862 C 844.688 144.072 844.461 145.273 844.004 146.394 C 843.547 147.516 842.871 148.534 842.014 149.389 C 841.158 150.245 840.139 150.92 839.017 151.376 C 837.895 151.831 836.694 152.058 835.484 152.042 C 834.258 152.063 833.04 151.839 831.902 151.384 C 830.763 150.929 829.727 150.252 828.854 149.392 C 827.965 148.555 827.261 147.542 826.787 146.418 C 826.314 145.293 826.081 144.082 826.104 142.862 L 826.104 137.552 C 816.17 147.892 804.537 153.062 791.204 153.062 L 791.174 153.002 Z M 793.834 135.652 C 799.966 135.682 806.016 134.249 811.484 131.472 C 816.984 128.686 821.929 124.917 826.074 120.352 L 826.074 77.552 C 821.929 72.986 816.984 69.217 811.484 66.432 C 806.017 63.651 799.966 62.215 793.834 62.242 C 783.76 62.242 775.664 65.442 769.544 71.842 C 763.424 78.242 760.364 87.295 760.364 99.002 C 760.364 110.702 763.424 119.748 769.544 126.142 C 775.664 132.535 783.76 135.725 793.834 135.712 L 793.834 135.652 Z M 886.273 151.572 C 883.245 151.561 880.344 150.353 878.203 148.212 C 876.062 146.071 874.854 143.17 874.844 140.142 L 874.844 139.002 C 874.859 135.975 876.069 133.077 878.209 130.937 C 880.349 128.797 883.247 127.587 886.273 127.572 L 888.273 127.572 C 891.305 127.579 894.211 128.785 896.358 130.926 C 898.504 133.067 899.718 135.97 899.734 139.002 L 899.734 140.222 C 899.723 143.248 898.517 146.148 896.378 148.289 C 894.239 150.43 891.34 151.638 888.314 151.652 L 886.273 151.572 Z M 956.464 153.002 C 950.714 153.055 945.027 151.8 939.834 149.332 C 934.849 146.986 930.638 143.268 927.694 138.612 C 924.655 133.755 923.095 128.119 923.204 122.392 C 923.204 112.325 927.183 104.298 935.143 98.312 C 943.104 92.325 954.77 89.325 970.143 89.312 L 994.844 89.312 L 994.844 87.682 C 994.844 78.702 992.63 72.238 988.204 68.292 C 983.777 64.345 976.874 62.372 967.494 62.372 C 962.875 62.323 958.262 62.732 953.724 63.592 C 949.197 64.548 944.732 65.777 940.354 67.272 C 939.489 67.51 938.6 67.648 937.704 67.682 C 936.712 67.689 935.729 67.493 934.816 67.106 C 933.902 66.719 933.078 66.149 932.393 65.432 C 931.665 64.714 931.09 63.855 930.705 62.908 C 930.32 61.96 930.132 60.944 930.154 59.922 C 930.154 56.255 931.92 53.668 935.454 52.162 C 946.607 47.356 958.619 44.859 970.764 44.822 C 980.144 44.822 988.067 46.725 994.534 50.532 C 1000.635 53.966 1005.599 59.111 1008.814 65.332 C 1011.894 71.435 1013.471 78.186 1013.414 85.022 L 1013.414 142.782 C 1013.437 144.003 1013.203 145.215 1012.728 146.34 C 1012.253 147.465 1011.546 148.478 1010.654 149.312 C 1009.78 150.172 1008.744 150.849 1007.606 151.304 C 1006.467 151.759 1005.249 151.983 1004.023 151.962 C 1002.813 151.979 1001.612 151.754 1000.49 151.299 C 999.368 150.843 998.349 150.168 997.493 149.312 C 996.637 148.456 995.962 147.437 995.507 146.315 C 995.052 145.194 994.826 143.992 994.844 142.782 L 994.844 137.472 C 984.764 147.865 971.97 153.062 956.464 153.062 L 956.464 153.002 Z M 963.404 136.672 C 969.458 136.653 975.416 135.149 980.754 132.292 C 986.081 129.553 990.855 125.85 994.834 121.372 L 994.834 104.292 L 972.584 104.292 C 952.044 104.292 941.773 109.665 941.773 120.412 C 941.688 122.63 942.092 124.839 942.956 126.883 C 943.82 128.928 945.123 130.757 946.773 132.242 C 950.107 135.242 955.65 136.738 963.404 136.732 L 963.404 136.672 Z M 1053.404 25.672 C 1050.649 25.658 1048.012 24.559 1046.064 22.611 C 1044.117 20.663 1043.017 18.026 1043.004 15.272 L 1043.004 14.452 C 1043.014 11.696 1044.113 9.055 1046.061 7.106 C 1048.009 5.156 1050.648 4.055 1053.404 4.042 L 1054.634 4.042 C 1057.39 4.055 1060.029 5.156 1061.977 7.106 C 1063.924 9.055 1065.023 11.696 1065.034 14.452 L 1065.034 15.272 C 1065.02 18.026 1063.921 20.663 1061.973 22.611 C 1060.026 24.559 1057.388 25.658 1054.634 25.672 L 1053.404 25.672 Z M 1053.804 152.002 C 1052.593 152.019 1051.392 151.794 1050.27 151.339 C 1049.148 150.883 1048.129 150.208 1047.273 149.352 C 1046.417 148.496 1045.742 147.477 1045.287 146.355 C 1044.832 145.234 1044.606 144.032 1044.624 142.822 L 1044.624 55.312 C 1044.601 54.084 1044.824 52.865 1045.279 51.724 C 1045.734 50.584 1046.412 49.546 1047.274 48.672 C 1048.11 47.783 1049.123 47.079 1050.247 46.605 C 1051.372 46.132 1052.583 45.899 1053.804 45.922 C 1055.048 45.878 1056.289 46.092 1057.448 46.548 C 1058.606 47.005 1059.659 47.695 1060.54 48.576 C 1061.42 49.456 1062.11 50.509 1062.567 51.668 C 1063.024 52.826 1063.237 54.067 1063.194 55.312 L 1063.194 142.862 C 1063.217 144.083 1062.984 145.295 1062.508 146.42 C 1062.033 147.545 1061.326 148.558 1060.434 149.392 C 1059.558 150.246 1058.52 150.917 1057.382 151.365 C 1056.243 151.813 1055.027 152.03 1053.804 152.002 L 1053.804 152.002 Z" fill="currentColor" fill-rule="nonzero"></path>
</svg>